<svg width="90" height="15" viewBox="0 0 90 15" fill="none" xmlns="http://www.w3.org/2000/svg">
<path d="M7.39998 14.32C6.33331 14.32 5.34665 14.1467 4.43998 13.8C3.54664 13.44 2.76664 12.94 2.09998 12.3C1.44664 11.6467 0.933311 10.8867 0.559978 10.02C0.186645 9.15337 -2.19643e-05 8.20003 -2.19643e-05 7.16003C-2.19643e-05 6.12003 0.186645 5.1667 0.559978 4.30003C0.933311 3.43337 1.45331 2.68003 2.11998 2.04003C2.78664 1.3867 3.56665 0.8867 4.45998 0.540033C5.36665 0.180034 6.35331 3.40939e-05 7.41998 3.40939e-05C8.49998 3.40939e-05 9.49331 0.186701 10.4 0.560034C11.32 0.920033 12.1 1.46003 12.74 2.18003L11.44 3.44003C10.9066 2.88003 10.3066 2.4667 9.63998 2.20003C8.97331 1.92003 8.25998 1.78003 7.49998 1.78003C6.71331 1.78003 5.97998 1.91337 5.29998 2.18003C4.63331 2.4467 4.05331 2.82003 3.55998 3.30003C3.06664 3.78003 2.67998 4.35337 2.39998 5.02003C2.13331 5.67337 1.99998 6.3867 1.99998 7.16003C1.99998 7.93337 2.13331 8.65337 2.39998 9.32003C2.67998 9.97337 3.06664 10.54 3.55998 11.02C4.05331 11.5 4.63331 11.8734 5.29998 12.14C5.97998 12.4067 6.71331 12.54 7.49998 12.54C8.25998 12.54 8.97331 12.4067 9.63998 12.14C10.3066 11.86 10.9066 11.4334 11.44 10.86L12.74 12.12C12.1 12.84 11.32 13.3867 10.4 13.76C9.49331 14.1334 8.49331 14.32 7.39998 14.32ZM13.1411 14.16L19.4811 0.160033H21.4611L27.8211 14.16H25.7211L20.0611 1.28003H20.8611L15.2011 14.16H13.1411ZM15.8411 10.66L16.3811 9.06003H24.2611L24.8411 10.66H15.8411ZM29.9095 14.16V0.160033H31.5495L40.8095 11.66H39.9495V0.160033H41.9495V14.16H40.3095L31.0495 2.66003H31.9095V14.16H29.9095ZM44.02 14.16L50.36 0.160033H52.34L58.7 14.16H56.6L50.94 1.28003H51.74L46.08 14.16H44.02ZM46.72 10.66L47.26 9.06003H55.14L55.72 10.66H46.72ZM60.7884 14.16V0.160033H66.6884C68.1817 0.160033 69.4951 0.453367 70.6284 1.04003C71.7751 1.6267 72.6617 2.4467 73.2884 3.50003C73.9284 4.55337 74.2484 5.77337 74.2484 7.16003C74.2484 8.5467 73.9284 9.7667 73.2884 10.82C72.6617 11.8734 71.7751 12.6934 70.6284 13.28C69.4951 13.8667 68.1817 14.16 66.6884 14.16H60.7884ZM62.7884 12.42H66.5684C67.7284 12.42 68.7284 12.2 69.5684 11.76C70.4217 11.32 71.0817 10.7067 71.5484 9.92003C72.0151 9.12003 72.2484 8.20003 72.2484 7.16003C72.2484 6.1067 72.0151 5.1867 71.5484 4.40003C71.0817 3.61337 70.4217 3.00003 69.5684 2.56003C68.7284 2.12003 67.7284 1.90003 66.5684 1.90003H62.7884V12.42ZM74.9965 14.16L81.3365 0.160033H83.3165L89.6765 14.16H87.5765L81.9165 1.28003H82.7165L77.0565 14.16H74.9965ZM77.6965 10.66L78.2365 9.06003H86.1165L86.6965 10.66H77.6965Z" fill="black"/>
</svg>
