<svg width="65" height="15" viewBox="0 0 65 15" fill="none" xmlns="http://www.w3.org/2000/svg">
<path d="M1.78814e-07 14V-9.53674e-07H5.9C7.39333 -9.53674e-07 8.70667 0.293333 9.84 0.88C10.9867 1.46667 11.8733 2.28667 12.5 3.34C13.14 4.39333 13.46 5.61333 13.46 7C13.46 8.38667 13.14 9.60667 12.5 10.66C11.8733 11.7133 10.9867 12.5333 9.84 13.12C8.70667 13.7067 7.39333 14 5.9 14H1.78814e-07ZM2 12.26H5.78C6.94 12.26 7.94 12.04 8.78 11.6C9.63333 11.16 10.2933 10.5467 10.76 9.76C11.2267 8.96 11.46 8.04 11.46 7C11.46 5.94667 11.2267 5.02667 10.76 4.24C10.2933 3.45333 9.63333 2.84 8.78 2.4C7.94 1.96 6.94 1.74 5.78 1.74H2V12.26ZM22.3234 14.16C20.4834 14.16 19.0368 13.6333 17.9834 12.58C16.9301 11.5267 16.4034 9.98667 16.4034 7.96V-9.53674e-07H18.4034V7.88C18.4034 9.44 18.7434 10.58 19.4234 11.3C20.1168 12.02 21.0901 12.38 22.3434 12.38C23.6101 12.38 24.5834 12.02 25.2634 11.3C25.9568 10.58 26.3034 9.44 26.3034 7.88V-9.53674e-07H28.2434V7.96C28.2434 9.98667 27.7168 11.5267 26.6634 12.58C25.6234 13.6333 24.1768 14.16 22.3234 14.16ZM32.3438 14V-9.53674e-07H38.6238C40.2371 -9.53674e-07 41.4771 0.326666 42.3438 0.98C43.2104 1.62 43.6438 2.5 43.6438 3.62C43.6438 4.38 43.4704 5.02 43.1238 5.54C42.7904 6.06 42.3371 6.46 41.7638 6.74C41.1904 7.02 40.5704 7.16 39.9038 7.16L40.2638 6.56C41.0638 6.56 41.7704 6.7 42.3838 6.98C42.9971 7.26 43.4838 7.67333 43.8438 8.22C44.2038 8.75333 44.3838 9.42 44.3838 10.22C44.3838 11.42 43.9304 12.3533 43.0238 13.02C42.1304 13.6733 40.7971 14 39.0238 14H32.3438ZM34.3438 12.38H38.9438C40.0504 12.38 40.8971 12.1933 41.4838 11.82C42.0704 11.4467 42.3638 10.86 42.3638 10.06C42.3638 9.24667 42.0704 8.65333 41.4838 8.28C40.8971 7.90667 40.0504 7.72 38.9438 7.72H34.1638V6.1H38.4438C39.4571 6.1 40.2438 5.91333 40.8038 5.54C41.3638 5.16667 41.6438 4.60667 41.6438 3.86C41.6438 3.11333 41.3638 2.55333 40.8038 2.18C40.2438 1.80667 39.4571 1.62 38.4438 1.62H34.3438V12.38ZM45.3605 14L51.7005 -9.53674e-07H53.6805L60.0405 14H57.9405L52.2805 1.12H53.0805L47.4205 14H45.3605ZM48.0605 10.5L48.6005 8.9H56.4805L57.0605 10.5H48.0605ZM62.1289 14V-9.53674e-07H64.1289V14H62.1289Z" fill="black"/>
</svg>
