<svg width="106" height="15" viewBox="0 0 106 15" fill="none" xmlns="http://www.w3.org/2000/svg">
<path d="M7.45999 14.32C6.37999 14.32 5.38666 14.1467 4.47999 13.8C3.57333 13.44 2.78666 12.94 2.11999 12.3C1.45333 11.6467 0.933327 10.8867 0.559993 10.02C0.18666 9.15337 -6.70552e-06 8.20003 -6.70552e-06 7.16003C-6.70552e-06 6.12003 0.18666 5.1667 0.559993 4.30003C0.933327 3.43337 1.45333 2.68003 2.11999 2.04003C2.79999 1.3867 3.59333 0.8867 4.49999 0.540033C5.40666 0.180034 6.40666 3.40939e-05 7.49999 3.40939e-05C8.60666 3.40939e-05 9.61999 0.180034 10.54 0.540033C11.46 0.900033 12.24 1.44003 12.88 2.16003L11.64 3.40003C11.0667 2.84003 10.44 2.43337 9.75999 2.18003C9.09333 1.91337 8.36666 1.78003 7.57999 1.78003C6.77999 1.78003 6.03333 1.91337 5.33999 2.18003C4.65999 2.4467 4.06666 2.82003 3.55999 3.30003C3.06666 3.78003 2.67999 4.35337 2.39999 5.02003C2.13333 5.67337 1.99999 6.3867 1.99999 7.16003C1.99999 7.92003 2.13333 8.63337 2.39999 9.30003C2.67999 9.95337 3.06666 10.5267 3.55999 11.02C4.06666 11.5 4.65999 11.8734 5.33999 12.14C6.01999 12.4067 6.75999 12.54 7.55999 12.54C8.30666 12.54 9.01999 12.4267 9.69999 12.2C10.3933 11.96 11.0333 11.5667 11.62 11.02L12.76 12.54C12.0667 13.1267 11.2533 13.5734 10.32 13.88C9.39999 14.1734 8.44666 14.32 7.45999 14.32ZM10.84 12.28V7.08003H12.76V12.54L10.84 12.28ZM18.4092 6.20003H25.6092V7.90003H18.4092V6.20003ZM18.5892 12.42H26.7492V14.16H16.5892V0.160033H26.4692V1.90003H18.5892V12.42ZM29.9876 14.16V0.160033H35.4476C36.6743 0.160033 37.721 0.353367 38.5877 0.740034C39.4543 1.1267 40.121 1.6867 40.5877 2.42003C41.0543 3.15337 41.2876 4.0267 41.2876 5.04003C41.2876 6.05337 41.0543 6.9267 40.5877 7.66003C40.121 8.38003 39.4543 8.93337 38.5877 9.32003C37.721 9.7067 36.6743 9.90003 35.4476 9.90003H31.0876L31.9876 8.98003V14.16H29.9876ZM39.3476 14.16L35.7876 9.08003H37.9277L41.5277 14.16H39.3476ZM31.9876 9.18003L31.0876 8.20003H35.3877C36.6676 8.20003 37.6343 7.9267 38.2877 7.38003C38.9543 6.82003 39.2877 6.04003 39.2877 5.04003C39.2877 4.04003 38.9543 3.2667 38.2877 2.72003C37.6343 2.17337 36.6676 1.90003 35.3877 1.90003H31.0876L31.9876 0.900033V9.18003ZM44.5189 14.16V0.160033H46.1589L52.4389 10.74H51.5589L57.7589 0.160033H59.3989L59.4189 14.16H57.4989L57.4789 3.18003H57.9389L52.4189 12.46H51.4989L45.9389 3.18003H46.4389V14.16H44.5189ZM61.5005 14.16L67.8405 0.160033H69.8205L76.1805 14.16H74.0805L68.4205 1.28003H69.2205L63.5605 14.16H61.5005ZM64.2005 10.66L64.7405 9.06003H72.6205L73.2005 10.66H64.2005ZM78.2689 14.16V0.160033H79.9089L89.1689 11.66H88.3089V0.160033H90.3089V14.16H88.6689L79.4089 2.66003H80.2689V14.16H78.2689ZM97.8794 14.16V8.80003L98.3394 10.04L92.3194 0.160033H94.4594L99.5194 8.50003H98.3594L103.439 0.160033H105.419L99.4194 10.04L99.8594 8.80003V14.16H97.8794Z" fill="black"/>
</svg>
