<svg width="95" height="95" viewBox="0 0 95 95" fill="none" xmlns="http://www.w3.org/2000/svg">
<path d="M87.1568 91.9356C86.069 86.7549 79.736 81.2098 72.0166 81.2098C68.6273 81.2098 64.9926 81.7766 61.9282 82.4296C65.8172 77.6596 67.4198 70.8902 67.4198 64.3551C67.4198 57.9825 66.3273 53.0992 65.4141 50.1203L71.8709 50.9385L70.2683 48.2462C70.2239 48.1728 65.8875 40.752 65.8875 29.1128C65.8875 18.937 65.8875 0 49.0325 0C48.706 0 41.4265 0.0535167 37.6768 4.42986C37.1144 4.3488 36.3883 4.30731 35.6007 4.42068C33.5215 4.71803 31.9201 5.96064 31.0224 7.94804C29.13 8.6007 24.5164 10.6708 24.5164 15.3229C24.5164 18.3781 25.7897 20.2965 27.3924 21.452H0V24.5164H13.7076C7.35651 27.6967 0 33.9655 0 45.9675H3.06439C3.06439 28.0691 21.4745 24.7701 23.1047 24.5158H29.0882C29.2474 25.3477 29.5556 26.215 30.1591 26.989C30.7627 27.7629 31.5689 28.305 32.5326 28.6575C30.8165 31.834 31.9334 34.9427 33.3125 36.8519C33.2127 37.1046 33.1209 37.3636 33.0322 37.6318C31.4723 35.755 29.079 33.7093 26.0481 33.7093C22.6756 33.7093 21.4514 36.4583 21.4514 38.306V39.072L22.0641 39.5318C30.0302 45.5061 28.8323 50.7327 27.3151 57.3476C26.6929 60.0643 26.0478 62.8744 26.0478 65.8868C26.0478 72.9384 27.7914 78.462 31.0889 82.3371C28.1207 81.7243 24.6779 81.2094 21.4511 81.2094C13.7329 81.2094 7.39863 86.7546 6.31087 91.9353H0V95H95.0003V91.9356H87.1568ZM49.0325 3.06408C60.4785 3.06408 62.8228 13.4774 62.8228 29.1125C62.8228 37.5277 64.9036 43.8284 66.3318 47.1594L64.2326 46.8975C64.2234 46.8776 64.2082 46.8453 64.205 46.8361L64.11 46.882L57.1123 46.0071C56.6205 45.699 53.6296 43.3961 53.6296 33.7093C53.6296 32.0468 54.1705 29.6303 54.7956 26.8341C55.6857 22.8533 56.694 18.3439 56.694 13.7899H53.6296C53.6296 18.0051 52.6596 22.34 51.8046 26.1644C51.1396 29.1401 50.5649 31.7079 50.5649 33.7093C50.5649 34.3284 50.5864 34.8984 50.6076 35.4684L44.3192 36.5165C44.4434 34.1875 45.2265 31.4584 47.2475 28.4292C51.8091 21.5876 52.8386 14.3416 50.0056 9.04435C48.6908 6.58827 46.6715 4.82285 44.2182 3.87158C46.6638 3.09163 48.9942 3.06408 49.0325 3.06408ZM43.4731 45.0846L36.1628 47.173C33.1535 38.4821 39.0052 33.582 39.2671 33.3673L37.3472 30.9771C37.3165 31.0015 36.1996 31.9302 35.0197 33.6371C34.5279 32.3194 34.4712 30.5176 36.3253 28.6635C36.9903 27.9985 37.6768 27.3351 38.3694 26.6653C42.2321 22.9343 46.4811 18.811 48.2171 13.117C49.0829 17.0811 47.8786 21.9581 44.6973 26.7296C39.0847 35.1479 41.5975 41.9221 43.4731 45.0846ZM32.5826 25.1092C32.1228 24.5269 32.005 23.6874 32.011 22.9765C32.0645 22.9796 32.1244 22.9841 32.1779 22.9841H35.2423V19.9197H32.1871C31.4179 19.9105 27.5811 19.6486 27.5811 15.3229C27.5808 11.9881 32.504 10.692 32.5484 10.6796L33.3651 10.4757L33.6301 9.67737C34.5877 6.80424 37.0884 7.35144 37.8209 7.58134L38.9318 7.95216L39.5816 6.97777C39.7808 6.67884 40.0138 6.40936 40.2605 6.15349C42.507 6.25165 44.4788 7.10507 45.9298 8.60355C45.5283 15.4727 40.8166 20.0435 36.2414 24.461C35.7049 24.9803 35.1812 25.4937 34.6587 26.0086C33.6995 25.9208 32.9914 25.6282 32.5826 25.1092ZM29.1129 65.8868C29.1129 63.2208 29.718 60.5836 30.3019 58.0325C31.8175 51.4348 33.3787 44.6175 24.6326 37.6442C24.8059 37.1692 25.2042 36.774 26.0485 36.774C28.9336 36.774 31.4391 40.358 32.265 41.9148C32.1931 44.1808 32.6035 46.763 33.8356 49.6342L34.3673 50.8752L40.0626 49.245C41.8017 50.0493 46.1594 52.6128 47.2503 58.4752C44.1995 59.183 38.3064 61.8601 38.3064 72.0159V73.5483H39.8387C39.9461 73.5483 50.5646 73.4074 50.5646 61.2901C50.5646 54.3123 46.9606 50.2624 44.0279 48.111L48.7903 46.7487L47.085 44.9177C46.9473 44.7705 45.2002 42.817 44.5507 39.5854L50.8467 38.5356C51.9069 47.2174 55.7133 48.788 56.2095 48.9521L62.046 49.6921C62.8978 52.0963 64.3551 57.2355 64.3551 64.3545C64.3551 69.3863 63.1401 85.8062 47.5002 85.8062C35.2986 85.8059 29.1129 79.1039 29.1129 65.8868ZM47.4986 61.5216C47.4096 67.9034 43.6894 69.7423 41.4417 70.2708C41.9762 63.9533 45.4102 62.0773 47.4986 61.5216ZM9.4709 91.9356C10.6324 88.4633 15.3885 84.2741 21.4517 84.2741C28.7667 84.2741 37.7319 87.2315 37.8225 87.2606L37.8548 87.1641C40.6206 88.2809 43.8351 88.8709 47.5005 88.8709C50.6403 88.8709 53.3231 88.2642 55.6398 87.2391L55.6474 87.2606C55.7364 87.2315 64.7016 84.2741 72.0166 84.2741C78.0798 84.2741 82.8359 88.4633 83.9974 91.9356H9.4709Z" fill="black"/>
<path d="M59.7582 52.0966H56.6938V55.1609H59.7582V52.0966Z" fill="black"/>
<path d="M62.8229 56.6931H59.7585V59.7575H62.8229V56.6931Z" fill="black"/>
<path d="M59.7582 61.2899H56.6938V64.3543H59.7582V61.2899Z" fill="black"/>
<path d="M56.6938 67.4192H53.6294V70.4836H56.6938V67.4192Z" fill="black"/>
<path d="M62.8229 67.4192H59.7585V70.4836H62.8229V67.4192Z" fill="black"/>
<path d="M59.7582 73.5481H56.6938V76.6125H59.7582V73.5481Z" fill="black"/>
<path d="M53.6291 76.6125H50.5647V79.6769H53.6291V76.6125Z" fill="black"/>
<path d="M47.5003 79.677H44.4359V82.7414H47.5003V79.677Z" fill="black"/>
</svg>
