<svg width="65" height="97" viewBox="0 0 65 97" fill="none" xmlns="http://www.w3.org/2000/svg">
<path d="M27.4011 11.6833C26.5635 11.6833 25.8845 12.3622 25.8845 13.1999V14.1868C25.8845 15.0245 26.5635 15.7033 27.4011 15.7033C28.2387 15.7033 28.9177 15.0245 28.9177 14.1868V13.1999C28.9177 12.3623 28.2387 11.6833 27.4011 11.6833Z" fill="black"/>
<path d="M33.1921 10.554C32.3543 10.554 31.6755 11.233 31.6755 12.0705V14.2795C31.6755 15.1171 32.3543 15.7961 33.1921 15.7961C34.0299 15.7961 34.7087 15.1171 34.7087 14.2795V12.0705C34.7087 11.2331 34.0299 10.554 33.1921 10.554Z" fill="black"/>
<path d="M38.9833 11.6833C38.1455 11.6833 37.4667 12.3622 37.4667 13.1999V14.1868C37.4667 15.0245 38.1455 15.7033 38.9833 15.7033C39.8211 15.7033 40.4999 15.0245 40.4999 14.1868V13.1999C40.4999 12.3623 39.8207 11.6833 38.9833 11.6833Z" fill="black"/>
<path d="M47.9999 66.8579L63.3509 51.5069C64.539 50.3187 64.539 48.3857 63.3509 47.1976L53.3258 37.1725C52.1374 35.9845 50.2048 35.985 49.0165 37.1725L46.4233 39.7658C45.2049 37.6825 42.9408 36.3003 40.4059 36.3003H39.7669V35.1494C39.7669 34.4673 40.0685 33.8323 40.5952 33.4077C43.1814 31.3198 44.7512 28.2701 44.9583 24.9776C45.311 24.4303 45.5058 23.7847 45.5058 23.0968V18.6823C46.1939 18.1465 46.6391 17.3126 46.6391 16.3748V14.1586C46.6391 12.2881 45.6204 10.5675 43.9805 9.66815C43.4963 9.40273 43.0046 9.15834 42.5081 8.93099L44.7218 6.29248C45.2603 5.65062 45.1765 4.69426 44.535 4.15603C43.8934 3.61741 42.9368 3.70153 42.3986 4.34283L39.4956 7.80242C37.9267 7.33997 36.3221 7.05371 34.7091 6.94344V1.51657C34.7091 0.678809 34.0303 0 33.1925 0C32.3547 0 31.6759 0.678809 31.6759 1.51657V6.94325C30.0629 7.05352 28.4585 7.33978 26.8894 7.80223L23.9864 4.34264C23.4482 3.70115 22.4913 3.61703 21.85 4.15584C21.2083 4.69407 21.1246 5.65081 21.6632 6.29229L23.8769 8.9308C23.3804 9.15834 22.8885 9.40254 22.4045 9.66815C20.7646 10.5675 19.7459 12.2881 19.7459 14.1586V16.375C19.7459 17.3122 20.1905 18.1458 20.8781 18.6817V23.0966C20.8781 23.8657 21.1211 24.5823 21.5573 25.1673L21.4379 25.1768C21.6918 28.367 23.2676 31.3586 25.7618 33.3846C26.3059 33.8268 26.6181 34.47 26.6181 35.1499V36.3003H20.3648C17.6722 36.3003 15.3709 34.5564 14.5604 32.1145H14.6339C16.145 32.1145 17.3745 30.8852 17.3745 29.3739V27.0362C17.3745 25.7843 16.5299 24.7281 15.3811 24.4017C15.7682 23.5014 15.976 22.5238 15.976 21.5251C15.976 18.3225 14.3431 12.4222 10.8384 9.92846C10.1713 9.45369 9.31293 9.33832 8.54167 9.62003C7.76642 9.9027 7.18045 10.5484 6.97432 11.3469C6.48459 13.2448 5.53846 14.1364 4.44286 15.1689C3.0985 16.436 1.57473 17.8718 1.41256 20.9684C1.35004 22.1633 1.56943 23.3307 2.03245 24.3915C0.864093 24.7046 0 25.7699 0 27.036V29.3737C0 30.8848 1.22936 32.1143 2.74062 32.1143H3.23718C3.6769 36.0565 5.45226 39.7065 8.33081 42.5159C11.2071 45.323 14.8961 47.011 18.8479 47.3558V80.6211H14.2444C12.1956 80.6211 10.5288 82.2879 10.5288 84.3366V93.2845C10.5288 95.3332 12.1956 97 14.2444 97H51.9737C54.0225 97 55.6893 95.3332 55.6893 93.2845V84.3366C55.6893 82.2879 54.0225 80.6211 51.9737 80.6211H47.37V67.338C47.5943 67.2078 47.8076 67.0502 47.9999 66.8579ZM42.4725 23.0964C42.4725 23.3097 42.3501 23.423 42.2474 23.4804C42.1447 23.5382 41.9839 23.5833 41.8024 23.4717L35.8496 19.823C35.6215 19.6834 35.4252 19.504 35.2587 19.3011H42.4725V23.0964ZM22.7783 14.1586C22.7783 13.396 23.1936 12.6943 23.8623 12.3275C29.7043 9.12367 36.6799 9.12367 42.5219 12.3275C43.1907 12.6943 43.606 13.3958 43.606 14.1586V16.2683H22.7783V14.1586ZM24.1355 23.4804C24.0328 23.423 23.9103 23.3095 23.9103 23.0964V19.3011H31.1241C30.9579 19.5038 30.7613 19.6832 30.5333 19.823L24.5805 23.4717C24.3991 23.5831 24.2382 23.538 24.1355 23.4804ZM24.7488 26.5514C25.2393 26.4936 25.7216 26.3301 26.1659 26.0579L32.1187 22.4092C32.5158 22.1658 32.8752 21.8731 33.1916 21.5423C33.5079 21.8731 33.8675 22.1658 34.2646 22.4092L40.2174 26.0579C40.6621 26.3305 41.145 26.494 41.6364 26.5516C41.1558 28.3027 40.1384 29.878 38.69 31.0471C37.447 32.0505 36.7339 33.5455 36.7339 35.149V36.2999H29.6507V35.1495C29.6507 33.5523 28.93 32.0509 27.6737 31.0301C26.2498 29.8737 25.2311 28.2942 24.7488 26.5514ZM4.44096 21.127C4.53948 19.2448 5.32855 18.5016 6.52248 17.376C7.59516 16.3649 8.90352 15.132 9.67213 12.8996C11.7131 14.9001 12.9423 19.0891 12.9423 21.5245C12.9423 22.5447 12.5723 23.5278 11.9147 24.295H5.51137C4.76606 23.4253 4.37958 22.2982 4.44096 21.127ZM3.03276 29.081V27.3284H14.3408V29.081H3.03276ZM10.4489 40.3451C8.15916 38.1101 6.71648 35.231 6.29267 32.1141H7.17022V33.4049C7.17022 34.2426 7.84922 34.9214 8.68679 34.9214C9.52436 34.9214 10.2034 34.2426 10.2034 33.4049V32.1141H11.4204C12.3099 36.2605 15.993 39.333 20.3641 39.333H40.4061C42.1263 39.333 43.626 40.4593 44.1434 42.0452L33.6658 52.5229C33.0902 53.0987 32.7734 53.8639 32.7734 54.6778C32.7734 54.9523 32.8125 55.2206 32.8824 55.4788C28.9524 57.5033 24.9987 58.7182 21.881 59.4374V45.905C21.881 45.0672 21.202 44.3884 20.3645 44.3884C16.6415 44.3884 13.1202 42.9525 10.4489 40.3451ZM21.8805 73.1322V62.5459C25.4049 61.7794 30.1078 60.3955 34.757 57.9244L38.5749 61.7423C32.6257 67.98 25.8827 71.4601 21.8805 73.1322ZM40.721 63.8884L43.6905 66.8579C43.8869 67.0543 44.1054 67.2154 44.3361 67.3469V80.6209H21.8805V76.4016C28.8393 73.7272 35.583 69.2456 40.721 63.8884ZM51.973 83.654C52.3492 83.654 52.6554 83.9602 52.6554 84.3364V93.2843C52.6554 93.6605 52.3492 93.9667 51.973 93.9667H14.2438C13.8676 93.9667 13.5614 93.6605 13.5614 93.2843V84.3364C13.5614 83.9602 13.8676 83.654 14.2438 83.654H51.973ZM45.8551 64.7127C45.851 64.7174 45.8398 64.7174 45.8353 64.7127L35.8104 54.6679L51.1809 39.3169L61.2059 49.3617L45.8551 64.7127Z" fill="black"/>
<path d="M47.5763 50.2012C46.9839 49.6092 46.0238 49.6092 45.4315 50.2012C44.8393 50.7937 44.8393 51.7538 45.4315 52.346L48.4633 55.3778C48.7597 55.6739 49.1478 55.8219 49.5358 55.8219C49.9238 55.8219 50.3122 55.6738 50.6083 55.3778C51.2006 54.7854 51.2006 53.8253 50.6083 53.2329L47.5763 50.2012Z" fill="black"/>
<path d="M54.3523 51.1627L49.3602 46.1706C48.7678 45.5786 47.8076 45.5786 47.2154 46.1706C46.6232 46.763 46.6232 47.7232 47.2154 48.3156L52.2075 53.3077C52.5038 53.6038 52.892 53.7517 53.28 53.7517C53.668 53.7517 54.0562 53.6038 54.3525 53.3077C54.9447 52.7152 54.9447 51.7551 54.3523 51.1627Z" fill="black"/>
</svg>
