<svg width="97" height="97" viewBox="0 0 97 97" fill="none" xmlns="http://www.w3.org/2000/svg">
<path d="M13.2749 34.734C14.0578 34.734 14.6923 34.0994 14.6923 33.3166V31.1918C14.6343 29.3177 11.9147 29.3191 11.8572 31.1918V33.3166C11.8574 34.0994 12.492 34.734 13.2749 34.734Z" fill="black"/>
<path d="M83.7249 34.7341C84.5077 34.7341 85.1423 34.0995 85.1423 33.3166V31.1919C85.0843 29.3176 82.3647 29.3191 82.3072 31.1919V33.3166C82.3074 34.0995 82.9422 34.7341 83.7249 34.7341Z" fill="black"/>
<path d="M13.2749 45.7691C14.0578 45.7691 14.6923 45.1345 14.6923 44.3516V42.2268C14.6343 40.3528 11.9147 40.3541 11.8572 42.2268V44.3516C11.8574 45.1345 12.492 45.7691 13.2749 45.7691Z" fill="black"/>
<path d="M83.7249 45.7691C84.5077 45.7691 85.1423 45.1346 85.1423 44.3517V42.2269C85.0843 40.3526 82.3647 40.3542 82.3072 42.2269V44.3517C82.3074 45.1346 82.9422 45.7691 83.7249 45.7691Z" fill="black"/>
<path d="M95.5948 93.8914H92.7633V26.0628H93.6703C95.5446 26.0048 95.5432 23.2852 93.6703 23.2277H92.3972L90.4281 16.7336C90.2008 15.9844 89.4092 15.5618 88.6602 15.7885C87.9109 16.0158 87.4877 16.8073 87.715 17.5564L89.4347 23.2275H78.0152L83.7251 4.39802L85.7884 11.2025C86.0157 11.9514 86.8073 12.3747 87.5563 12.1477C88.3056 11.9204 88.7288 11.1288 88.5015 10.3798L85.8264 1.55896C85.5438 0.626643 84.6993 0 83.7249 0C82.7506 0 81.906 0.626454 81.6233 1.55877L75.0526 23.2277H73.7796C71.9054 23.2857 71.9069 26.0054 73.7796 26.0628H74.6864V30.0173H69.8645C68.3437 30.0173 67.1063 31.2547 67.1063 32.7755V35.8392H61.6456V32.7755C61.6456 31.2547 60.4082 30.0173 58.8874 30.0173H53.9885C52.4677 30.0173 51.2303 31.2547 51.2303 32.7755V35.8392H45.7698V32.7755C45.7698 31.2547 44.5324 30.0173 43.0116 30.0173H38.1128C36.592 30.0173 35.3545 31.2547 35.3545 32.7755V35.8392H29.894V32.7755C29.894 31.2547 28.6566 30.0173 27.1358 30.0173H22.3139V26.0628H23.2207C25.0949 26.0048 25.0936 23.2852 23.2207 23.2277H21.9478L15.3764 1.55877C14.7643 -0.504224 11.7851 -0.503279 11.1734 1.55877L4.60258 23.2277H3.32945C1.45519 23.2857 1.4567 26.0054 3.32945 26.0628H4.23645V93.8914H1.40513C-0.469132 93.9494 -0.467621 96.669 1.40513 96.7265H95.5948C97.4691 96.6683 97.4677 93.9488 95.5948 93.8914ZM13.2749 4.39821L18.9848 23.2277H7.56519L13.2749 4.39821ZM19.4784 93.8914H7.07174V26.0628H19.4784V93.8914ZM54.2651 93.8914H42.7348V70.1995C43.0256 62.5598 53.977 62.5657 54.2651 70.1995V93.8914ZM74.6864 93.8914H62.7154V70.1438C61.9985 51.3073 34.9956 51.3192 34.2845 70.1439C34.2845 70.9266 34.9193 71.5612 35.702 71.5612C36.4847 71.5612 37.1194 70.9266 37.1194 70.1438C37.6918 55.0652 59.3115 55.073 59.8803 70.1438V93.8914H57.1V70.1995C56.6663 58.803 40.3293 58.8117 39.8997 70.1995V93.8914H37.1194V76.7041C37.0614 74.8299 34.3418 74.8312 34.2843 76.7041V93.8914H22.3133V52.0278H74.6864V93.8914ZM74.6864 49.1927H22.3133V45.607H74.6864V49.1927ZM74.6864 42.7719H22.3133V32.8522H27.0586V35.9159C27.0586 37.4369 28.296 38.6741 29.8168 38.6741H35.4309C36.9517 38.6741 38.1891 37.4367 38.1891 35.9159V32.8522H42.9345V35.9159C42.9345 37.4369 44.1719 38.6741 45.6927 38.6741H51.3068C52.8276 38.6741 54.065 37.4367 54.065 35.9159V32.8522H58.8103V35.9159C58.8103 37.4369 60.0477 38.6741 61.5685 38.6741H67.1828C68.7036 38.6741 69.941 37.4367 69.941 35.9159V32.8522H74.6862V42.7719H74.6864ZM89.9282 93.8914H77.5215V26.0628H89.9282V93.8914Z" fill="black"/>
</svg>
