<svg width="102" height="99" viewBox="0 0 102 99" fill="none" xmlns="http://www.w3.org/2000/svg">
<path d="M49.8839 0.457058C49.3853 0.895245 49.326 1.07531 49.2459 2.64904C49.2063 3.60556 49.0866 4.38306 49.0065 4.38306C48.9263 4.38306 48.5287 4.0042 48.1301 3.52646C46.675 1.79244 46.675 1.79244 45.8382 1.79244C44.9212 1.79244 44.2239 2.47002 44.2239 3.36617C44.2239 4.58186 46.5553 7.17248 48.3091 7.88961C49.2063 8.26847 49.4644 8.56719 48.9066 8.56719C48.3882 8.56719 47.6118 9.50394 47.6118 10.1014C47.6118 10.7987 48.0895 11.5159 48.7275 11.7552C49.146 11.9145 49.2053 12.0737 49.2053 12.9106C49.2053 13.7672 49.146 13.8869 48.5673 14.2262C47.5316 14.8236 47.0133 15.3617 46.4554 16.4379C45.9766 17.3549 45.9371 17.6536 45.858 20.5627L45.7778 23.7112H44.1042H42.4305V20.543C42.4305 17.4746 42.4107 17.3549 41.8726 16.3182C40.2791 13.2499 36.094 12.6722 33.7427 15.1827C32.4875 16.4973 32.3678 16.9167 32.3085 20.4628L32.2283 23.7112H31.1323C30.1956 23.7112 29.9562 23.7914 29.4587 24.2889C28.8009 24.9467 28.7415 25.4442 29.1797 26.3019C29.5388 26.9992 29.8178 27.0794 32.169 27.1585L33.9623 27.198L34.0217 28.8321L34.081 30.486L17.5214 30.5256L0.942045 30.5849L0.464305 31.1428C-0.153948 31.8797 -0.153948 32.7571 0.484081 33.3743C0.882718 33.7927 1.16166 33.8729 2.17751 33.8729C3.13403 33.8729 3.37342 33.9322 3.37342 34.1914C3.37342 34.6899 4.48919 35.6662 5.06685 35.6662C5.64451 35.6662 6.76028 34.6899 6.76028 34.1914C6.76028 33.8926 8.05507 33.8729 20.3702 33.9124L33.9603 33.9717L34.0196 35.6058L34.0789 37.2597L17.5193 37.2993L0.939963 37.3586L0.462223 37.9165C-0.156029 38.6534 -0.156029 39.5308 0.481999 40.148C0.880636 40.5664 1.15958 40.6466 2.17543 40.6466H3.37134V45.1523C3.37134 47.9823 3.45148 49.7955 3.59095 50.0546C4.12906 51.0507 1.75806 51.0111 50.9966 51.0111C100.235 51.0111 97.864 51.0507 98.4021 50.0546C98.5416 49.7955 98.6207 47.9823 98.6207 45.1523V40.6487H99.8166C100.832 40.6487 101.112 40.5685 101.51 40.1501C102.148 39.5318 102.148 38.6555 101.53 37.9186L101.052 37.3607L84.4727 37.3013L67.9131 37.2618L67.9725 35.6079L68.0318 33.9738L81.6417 33.9145C94.9331 33.8749 95.2318 33.8749 95.2318 34.2528C95.2318 34.7711 96.3278 35.6672 96.9658 35.6672C97.5039 35.6672 98.6197 34.6909 98.6197 34.1924C98.6197 33.9332 98.8591 33.8739 99.8156 33.8739C100.831 33.8739 101.111 33.7938 101.509 33.3753C102.147 32.7571 102.147 31.8807 101.529 31.1438L101.051 30.5859L84.4717 30.5266L67.9121 30.487L67.9714 28.8332L68.0308 27.1991L69.8241 27.1595C72.1753 27.0794 72.4543 27.0003 72.8134 26.3029C73.2515 25.4463 73.1922 24.9478 72.5344 24.2899C72.0161 23.7914 71.7975 23.7123 70.841 23.7123H69.7252V20.8229C69.7252 18.4322 69.6659 17.7744 69.3266 16.8772C68.9082 15.7614 67.8715 14.605 66.7963 14.0669C64.4451 12.8908 61.2768 13.967 60.0809 16.3588C59.5823 17.3549 59.5626 17.5547 59.5626 20.5638V23.7123H57.8889H56.2153L56.1351 20.5638C56.056 17.6547 56.0154 17.3559 55.5179 16.4192C54.9996 15.4034 54.1034 14.4864 53.2458 14.0877C52.8669 13.9087 52.7878 13.7287 52.7878 12.9116C52.7878 12.0748 52.8471 11.9155 53.2666 11.7563C53.9046 11.5169 54.3824 10.7998 54.3824 10.1024C54.3824 9.50498 53.6049 8.56823 53.0876 8.56823C52.5297 8.56823 52.7889 8.26951 53.685 7.89065C55.4388 7.17352 57.7703 4.5829 57.7703 3.36721C57.7703 2.47002 57.0729 1.79348 56.1559 1.79348C55.3191 1.79348 55.1193 1.93295 53.8245 3.56705C53.4654 4.00524 53.0876 4.3841 53.0074 4.3841C52.9075 4.3841 52.7878 3.6066 52.7483 2.65008C52.6692 1.07635 52.6088 0.896282 52.1102 0.458092C51.8115 0.218704 51.313 0.0001297 50.9945 0.0001297C50.6812 -0.00195312 50.1826 0.217667 49.8839 0.457058ZM38.1069 17.1759C38.9635 17.6141 39.0239 17.9128 39.0437 20.8625V23.7123H37.3502H35.6568V20.9031V18.0929L36.2345 17.5152C36.8517 16.8959 37.4096 16.797 38.1069 17.1759ZM51.697 17.1353C52.5339 17.4538 52.793 18.3905 52.793 21.2205V23.7112H50.9997H49.2063V21.2205C49.2063 18.4707 49.4655 17.4548 50.243 17.1353C50.8602 16.8959 51.0788 16.8959 51.697 17.1353ZM65.6858 17.4142C66.2437 17.892 66.2436 17.892 66.303 20.8021L66.3623 23.7112H64.6689H62.9557V20.8615C62.9557 17.9128 63.015 17.613 63.8529 17.1748C64.4899 16.8168 65.0883 16.8959 65.6858 17.4142ZM64.5502 32.1805V37.2618H50.9997H37.4491V32.1805V27.0991H50.9997H64.5502V32.1805ZM13.5767 42.7615C13.636 44.814 13.6568 44.8734 14.2147 45.3719C14.6924 45.7706 14.9318 45.8497 15.5095 45.7508C16.6648 45.5718 16.8043 45.2731 16.924 42.8812L17.0239 40.7486L20.3316 40.6892L23.6592 40.6497L23.7393 42.7615C23.7986 44.7943 23.8392 44.8931 24.3565 45.3522C24.675 45.6113 25.134 45.8299 25.413 45.8299C26.7484 45.8299 27.2865 44.8338 27.2865 42.3431V40.6497L30.6338 40.6892L33.9613 40.7486L34.0612 42.901C34.1611 44.8734 34.2007 45.1128 34.6389 45.4521C35.2769 45.9704 36.1137 45.9298 36.7913 45.3522C37.3294 44.8942 37.3492 44.7943 37.4085 42.7615L37.4887 40.6497H40.8568H44.2239V42.6814C44.2436 44.813 44.3436 45.1721 45.1606 45.5905C45.858 45.9694 46.4159 45.8694 47.0341 45.2522C47.592 44.6746 47.6118 44.6142 47.6118 42.6616V40.6487H50.9997H54.3876V42.6616C54.3876 44.6142 54.4073 44.6746 54.9652 45.2522C55.5824 45.8705 56.1403 45.9694 56.8387 45.5905C57.6558 45.1721 57.7557 44.813 57.7755 42.6814V40.6487H61.1436H64.5096L64.5898 42.7605C64.6491 44.813 64.6689 44.8723 65.2278 45.3709C65.7055 45.7695 65.9449 45.8486 66.5226 45.7498C67.6779 45.5707 67.8174 45.272 67.9371 42.8802L68.037 40.7475L71.3448 40.6882L74.6723 40.6487L74.7524 42.7605C74.8118 44.7932 74.8523 44.8921 75.3696 45.3511C75.6881 45.6103 76.1471 45.8289 76.4261 45.8289C77.7615 45.8289 78.2996 44.8328 78.2996 42.3421V40.6487L81.6469 40.6882L84.9744 40.7475L85.0743 42.9C85.1742 44.8723 85.2138 45.1117 85.652 45.451C86.29 45.9694 87.1268 45.9288 87.8044 45.3511C88.3425 44.8931 88.3623 44.7932 88.4216 42.7605L88.5018 40.6487L91.8095 40.6882L95.1371 40.7475L95.1964 44.0751L95.2359 47.4224H50.9997H6.76236V44.0345V40.6466H10.1305H13.4976L13.5767 42.7615Z" fill="black"/>
<path d="M2.21919 54.8569C1.72063 55.3752 1.64153 56.491 2.05994 57.0291C2.19941 57.2279 2.5585 57.4673 2.83744 57.5672L3.37555 57.7868V76.4187V95.0506H2.37948C1.18356 95.0506 0.505984 95.3493 0.207266 95.9873C-0.15182 96.7648 -0.0519006 97.2426 0.566352 97.8608L1.14401 98.4385H50.9997H100.856L101.434 97.8608C102.052 97.2436 102.151 96.7648 101.793 95.9873C101.494 95.3493 100.817 95.0506 99.621 95.0506H98.6249V76.4187C98.6249 58.8433 98.6447 57.7671 98.984 57.6474C100.219 57.2092 100.658 55.675 99.7615 54.8382C99.3035 54.4 99.1838 54.4 93.4843 54.4C87.9647 54.4 87.6462 54.4198 87.2674 54.7986C86.3702 55.6958 86.6096 57.0302 87.7659 57.5089L88.4633 57.7879V76.4197V95.0516H85.8727H83.2821V76.4V57.7681L83.8795 57.5485C84.7361 57.2498 85.1743 56.3734 84.8756 55.4762C84.7559 55.0973 84.4769 54.6987 84.2781 54.5998C83.7796 54.3407 72.6208 54.3407 72.1223 54.5998C71.9235 54.6997 71.6435 55.0984 71.5249 55.4762C71.2261 56.3734 71.6643 57.2498 72.5209 57.5485L73.1184 57.7681V76.4V95.0516H70.5277H67.9371V76.4197V57.7879L68.6345 57.5089C69.4317 57.1707 69.8106 56.4129 69.6305 55.5563C69.3714 54.4406 69.1924 54.401 62.8558 54.401H57.0376L56.6191 54.859C55.7823 55.7562 56.2007 57.2102 57.4362 57.6484C57.7547 57.7681 57.7745 58.8443 57.7745 76.4197V95.0516H50.9997H44.225V76.4197C44.225 58.8443 44.2447 57.7681 44.584 57.6484C45.8195 57.2102 46.2577 55.676 45.3615 54.8392C44.9036 54.401 44.7839 54.401 39.1249 54.401C32.7082 54.401 32.5885 54.4208 32.3501 55.6958C32.1909 56.5524 32.5895 57.23 33.4461 57.5891L34.0644 57.8285V76.4395V95.0516H31.4738H28.8831V76.4197V57.7879L29.5607 57.5089C30.6963 57.0312 30.9159 55.4169 29.9198 54.6789C29.5014 54.3604 18.3218 54.2803 17.7442 54.5988C17.5454 54.6987 17.2665 55.0567 17.1259 55.3961C16.7669 56.2329 17.1655 57.1498 18.0627 57.5079L18.7205 57.7868V76.4187V95.0506H16.1299H13.5392V76.4187V57.7868L14.2366 57.5079C15.3919 57.0302 15.6313 55.6948 14.7352 54.7976C14.3563 54.4187 14.0378 54.3989 8.49851 54.3989H2.6376L2.21919 54.8569ZM10.1493 76.4177V95.0495H8.45583H6.7624V76.4177V57.7858H8.45583H10.1493V76.4177ZM25.4932 76.4177V95.0495H23.7997H22.1063V76.4177V57.7858H23.7997H25.4932V76.4177ZM40.8371 76.4177V95.0495H39.1436H37.4502V76.4177V57.7858H39.1436H40.8371V76.4177ZM64.5503 76.4177V95.0495H62.8568H61.1634V76.4177V57.7858H62.8568H64.5503V76.4177ZM79.8931 76.4177V95.0495H78.1997H76.5063V76.4177V57.7858H78.1997H79.8931V76.4177ZM95.237 76.4177V95.0495H93.5436H91.8502V76.4177V57.7858H93.5436H95.237V76.4177Z" fill="black"/>
</svg>
