<svg width="95" height="95" viewBox="0 0 95 95" fill="none" xmlns="http://www.w3.org/2000/svg">
<path d="M32.1858 0.337334L31.741 0.689308L31.6492 14.5578L31.5563 28.4089L28.871 28.464C26.4265 28.5007 26.1673 28.5384 25.7786 28.9088C25.5011 29.1679 25.3531 29.5199 25.3531 29.927C25.3531 31.3901 25.9643 31.6492 29.2607 31.6492H31.6492V61.647V91.6457H16.335C0.113899 91.6641 0.669914 91.6273 0.206729 92.516C-0.145253 93.1638 -0.0524226 93.6821 0.520998 94.2565L1.05767 94.7932H47.3878H93.7179L94.2545 94.2565C94.9953 93.5158 94.9208 92.5343 94.0689 91.8865C93.8465 91.7008 87.1801 91.6641 64.2926 91.6457H34.7967V90.0714V88.4972H46.0736H57.369L57.8322 88.0717C58.5729 87.4422 58.628 86.6454 58.0362 85.9424L57.5363 85.3497H46.1665H34.7967V83.7754V82.2012L46.5736 82.1644L58.3505 82.1093L58.7943 81.591C59.3687 80.9054 59.3687 80.0912 58.7759 79.5168L58.3311 79.0536H46.5552H34.7967V77.4794V75.9051L46.9072 75.8684L59.0177 75.8133L59.4992 75.3685C60.1104 74.7941 60.1471 73.887 59.5544 73.2208L59.1289 72.7209L47.0184 72.7025L34.8895 72.6657L34.8344 71.0364L34.7783 69.4254H47.2959C54.9622 69.4254 59.9431 69.3509 60.1471 69.2397C60.7215 68.9438 60.999 68.0358 60.7215 67.3879C60.2399 66.2401 60.6287 66.2769 47.1112 66.2769H34.7967V64.7026V63.1284H47.3694H59.9431L60.443 62.5356C61.0174 61.8694 60.9797 61.0726 60.3318 60.4431C59.9798 60.0727 59.7023 60.0727 47.3887 60.0176L34.7967 59.9809V58.4066V56.8324H46.9256H59.0728L59.5176 56.3692C59.9808 55.9253 60.1104 55.1653 59.8696 54.5174C59.5544 53.7032 59.388 53.6839 46.7409 53.6839H34.7967V52.1096V50.5354H46.4807H58.1648L58.7015 49.9987C59.4054 49.2947 59.4054 48.6285 58.7015 47.9245L58.1648 47.3878H46.4807H34.7967V45.8136V44.2393H44.8146C51.629 44.2393 54.9438 44.1842 55.2029 44.0353C55.7396 43.7578 56.1293 42.7018 55.9253 42.1284C55.5182 41.0541 55.7957 41.0918 44.8523 41.0918H34.7967V39.5176V37.9433H43.3332H51.8697L52.4064 37.4066C53.091 36.7027 53.1287 35.8885 52.4809 35.259L52.037 34.7958H43.4077H34.7977V33.2215V31.6473H44.0188H53.2216L54.4622 33.7215C58.6096 40.7766 61.1653 47.4062 62.3876 54.3308C62.962 57.5528 63.1283 59.9045 63.1283 64.312C63.1283 72.8485 62.2397 80.4964 60.6103 86.3108C59.9992 88.5146 59.9624 88.6809 60.2399 89.1992C60.5542 89.8103 60.8694 89.9767 61.7214 89.9767C62.4804 89.9767 62.9804 89.44 63.3691 88.2177C64.369 85.0509 65.3137 79.9587 65.8136 74.9778C66.2207 70.9967 66.388 61.2379 66.1095 58.2016C65.3505 50.1283 62.7396 41.8876 58.5177 34.2591L57.0547 31.6482H58.9616H60.8685L61.702 33.0745C65.8688 40.3153 68.4235 48.6111 69.2571 57.6291C69.5346 60.7399 69.3683 71.1282 68.9612 74.8869C68.4429 79.8862 67.5165 84.7385 66.6095 87.3677C66.2391 88.4604 66.2942 88.9227 66.887 89.5715C67.1461 89.849 67.4797 89.9786 67.9429 89.9786C68.8683 89.9786 69.2948 89.4787 69.8498 87.6636C72.276 79.8678 73.3677 64.0354 72.1087 54.5174C71.1456 47.148 69.0163 40.2225 65.7759 33.9081L64.6281 31.6492H67.9613C71.6832 31.6492 72.2015 31.5196 72.5351 30.5381C72.7759 29.8903 72.6831 29.5015 72.1464 28.9088L71.7761 28.5017H63.4058H55.0173L54.0542 27.0947C49.7221 20.8171 42.9077 13.5763 36.4628 8.41067L34.8885 7.13329L34.7957 4.00413L34.7029 0.874969L34.1846 0.430161C33.556 -0.107483 32.7786 -0.144226 32.1858 0.337334ZM37.0188 13.058C39.1665 14.9281 44.7779 20.613 46.5736 22.7607C48.3693 24.9084 50.9066 28.1864 50.9066 28.3528C50.9066 28.4456 47.2775 28.5007 42.8517 28.5007H34.7967V19.8714C34.7967 13.0387 34.8518 11.2797 35.0375 11.3899C35.1487 11.4654 36.0557 12.2061 37.0188 13.058Z" fill="black"/>
</svg>
