<svg width="93" height="101" viewBox="0 0 93 101" fill="none" xmlns="http://www.w3.org/2000/svg">
<path d="M39.8206 23.1178C40.7254 23.1178 41.4589 22.3843 41.4589 21.4795C41.4589 20.5747 40.7254 19.8412 39.8206 19.8412C38.9158 19.8412 38.1823 20.5747 38.1823 21.4795C38.1823 22.3843 38.9158 23.1178 39.8206 23.1178Z" fill="black"/>
<path d="M19.0819 22.2787C20.8474 22.2787 22.2786 20.8475 22.2786 19.082C22.2786 17.3165 20.8474 15.8853 19.0819 15.8853C17.3164 15.8853 15.8851 17.3165 15.8851 19.082C15.8851 20.8475 17.3164 22.2787 19.0819 22.2787Z" stroke="black" stroke-width="3" stroke-linecap="round" stroke-linejoin="round"/>
<path d="M19.3009 32.9829V35.2446" stroke="black" stroke-width="3" stroke-linecap="round" stroke-linejoin="round"/>
<path d="M19.3009 42.0281V44.2898" stroke="black" stroke-width="3" stroke-linecap="round" stroke-linejoin="round"/>
<path d="M13.6475 38.6364H15.9075" stroke="black" stroke-width="3" stroke-linecap="round" stroke-linejoin="round"/>
<path d="M22.6926 38.6364H24.9543" stroke="black" stroke-width="3" stroke-linecap="round" stroke-linejoin="round"/>
<path d="M68.6311 39.8607V59.3655" stroke="black" stroke-width="3" stroke-linecap="round" stroke-linejoin="round"/>
<path d="M53.5906 39.8607H71.7128L60.6393 19.082L50.9005 37.3577" stroke="black" stroke-width="3" stroke-linecap="round" stroke-linejoin="round"/>
<path d="M60.6393 19.082V1.5" stroke="black" stroke-width="3" stroke-linecap="round" stroke-linejoin="round"/>
<path d="M55.8441 6.29517H65.4343" stroke="black" stroke-width="3" stroke-linecap="round" stroke-linejoin="round"/>
<path d="M71.7126 65.4345H84.7313C85.739 62.4961 86.24 59.4078 86.213 56.3015C86.213 47.2212 77.422 39.8607 77.422 39.8607C77.422 39.8607 68.631 47.2212 68.631 56.3015C68.6289 57.9366 68.761 59.5692 69.0258 61.1828" stroke="black" stroke-width="3" stroke-linecap="round" stroke-linejoin="round"/>
<path d="M71.7126 65.4343H84.6146V77.7193" stroke="black" stroke-width="3" stroke-linecap="round" stroke-linejoin="round"/>
<path d="M40.1099 59.041H55.4206C56.7759 56.1885 57.4671 53.066 57.4425 49.908C57.4425 40.8277 45.4548 33.4673 45.4548 33.4673C45.4548 33.4673 35.7736 39.4116 33.8108 47.2052" stroke="black" stroke-width="3" stroke-linecap="round" stroke-linejoin="round"/>
<path d="M54.2458 59.682V77.7195" stroke="black" stroke-width="3" stroke-linecap="round" stroke-linejoin="round"/>
<path d="M91.0082 99H1.5" stroke="black" stroke-width="3" stroke-linecap="round" stroke-linejoin="round"/>
<path d="M67.0327 57.4426L55.9592 78.2213H78.1061L67.0327 57.4426Z" stroke="black" stroke-width="3" stroke-linecap="round" stroke-linejoin="round"/>
<path d="M14.2868 52.6476L7.89331 73.4263H20.6802L14.2868 52.6476Z" stroke="black" stroke-width="3" stroke-linecap="round" stroke-linejoin="round"/>
<path d="M38.6474 71.8278C39.4773 68.8552 39.8856 65.7809 39.8606 62.6948C39.8606 53.6065 32.668 46.254 32.668 46.254C32.668 46.254 25.4753 53.6065 25.4753 62.6948C25.4503 65.7809 25.8586 68.8552 26.6885 71.8278H38.6474Z" stroke="black" stroke-width="3" stroke-linecap="round" stroke-linejoin="round"/>
<path d="M87.8114 98.5429V78.2213H38.2622V71.8279H27.0737V78.2213H4.69666V98.415" stroke="black" stroke-width="3" stroke-linecap="round" stroke-linejoin="round"/>
<path d="M35.0655 98.5429V95.8033C35.0655 92.8359 33.8867 89.99 31.7885 87.8918C29.6902 85.7935 26.8444 84.6147 23.877 84.6147C20.9096 84.6147 18.0638 85.7935 15.9655 87.8918C13.8673 89.99 12.6885 92.8359 12.6885 95.8033V98.5429" stroke="black" stroke-width="3" stroke-linecap="round" stroke-linejoin="round"/>
<path d="M19.0819 77.7194V74.1119" stroke="black" stroke-width="3" stroke-linecap="round" stroke-linejoin="round"/>
<path d="M9.4917 74.1119V77.7194" stroke="black" stroke-width="3" stroke-linecap="round" stroke-linejoin="round"/>
<path d="M43.0573 86.213V98.9999" stroke="black" stroke-width="3" stroke-linecap="round" stroke-linejoin="round"/>
<path d="M49.4507 86.213V98.9999" stroke="black" stroke-width="3" stroke-linecap="round" stroke-linejoin="round"/>
<path d="M55.8441 86.213V98.9999" stroke="black" stroke-width="3" stroke-linecap="round" stroke-linejoin="round"/>
<path d="M62.2377 86.213V98.9999" stroke="black" stroke-width="3" stroke-linecap="round" stroke-linejoin="round"/>
<path d="M68.6311 86.213V98.9999" stroke="black" stroke-width="3" stroke-linecap="round" stroke-linejoin="round"/>
<path d="M75.0245 86.213V98.9999" stroke="black" stroke-width="3" stroke-linecap="round" stroke-linejoin="round"/>
<path d="M81.418 86.213V98.9999" stroke="black" stroke-width="3" stroke-linecap="round" stroke-linejoin="round"/>
</svg>
