<svg width="74" height="15" viewBox="0 0 74 15" fill="none" xmlns="http://www.w3.org/2000/svg">
<path d="M2.44975e-05 14.16V0.160033H5.46002C6.68669 0.160033 7.73336 0.353367 8.60002 0.740034C9.46669 1.1267 10.1334 1.6867 10.6 2.42003C11.0667 3.15337 11.3 4.0267 11.3 5.04003C11.3 6.05337 11.0667 6.9267 10.6 7.66003C10.1334 8.38003 9.46669 8.93337 8.60002 9.32003C7.73336 9.7067 6.68669 9.90003 5.46002 9.90003H1.10002L2.00002 8.98003V14.16H2.44975e-05ZM9.36002 14.16L5.80002 9.08003H7.94003L11.54 14.16H9.36002ZM2.00002 9.18003L1.10002 8.20003H5.40003C6.68002 8.20003 7.64669 7.9267 8.30003 7.38003C8.96669 6.82003 9.30003 6.04003 9.30003 5.04003C9.30003 4.04003 8.96669 3.2667 8.30003 2.72003C7.64669 2.17337 6.68002 1.90003 5.40003 1.90003H1.10002L2.00002 0.900033V9.18003ZM20.3313 14.32C18.4913 14.32 17.0446 13.7934 15.9913 12.74C14.9379 11.6867 14.4113 10.1467 14.4113 8.12003V0.160033H16.4113V8.04003C16.4113 9.60003 16.7513 10.74 17.4313 11.46C18.1246 12.18 19.0979 12.54 20.3513 12.54C21.6179 12.54 22.5913 12.18 23.2713 11.46C23.9646 10.74 24.3113 9.60003 24.3113 8.04003V0.160033H26.2513V8.12003C26.2513 10.1467 25.7246 11.6867 24.6713 12.74C23.6313 13.7934 22.1846 14.32 20.3313 14.32ZM34.4316 14.32C33.3649 14.32 32.3449 14.16 31.3716 13.84C30.3983 13.5067 29.6316 13.08 29.0716 12.56L29.8116 11C30.3449 11.4667 31.0249 11.8534 31.8516 12.16C32.6783 12.4667 33.5383 12.62 34.4316 12.62C35.2449 12.62 35.9049 12.5267 36.4116 12.34C36.9183 12.1534 37.2916 11.9 37.5316 11.58C37.7716 11.2467 37.8916 10.8734 37.8916 10.46C37.8916 9.98003 37.7316 9.59337 37.4116 9.30003C37.1049 9.0067 36.6983 8.77337 36.1916 8.60003C35.6983 8.41337 35.1516 8.25337 34.5516 8.12003C33.9516 7.9867 33.3449 7.83337 32.7316 7.66003C32.1316 7.47337 31.5783 7.24003 31.0716 6.96003C30.5783 6.68003 30.1783 6.3067 29.8716 5.84003C29.5649 5.36003 29.4116 4.7467 29.4116 4.00003C29.4116 3.28003 29.5983 2.62003 29.9716 2.02003C30.3583 1.4067 30.9449 0.920033 31.7316 0.560034C32.5316 0.186701 33.5449 3.40939e-05 34.7716 3.40939e-05C35.5849 3.40939e-05 36.3916 0.106701 37.1916 0.320034C37.9916 0.533367 38.6849 0.840033 39.2716 1.24003L38.6116 2.84003C38.0116 2.44003 37.3783 2.15337 36.7116 1.98003C36.0449 1.79337 35.3983 1.70003 34.7716 1.70003C33.9849 1.70003 33.3383 1.80003 32.8316 2.00003C32.3249 2.20003 31.9516 2.4667 31.7116 2.80003C31.4849 3.13337 31.3716 3.5067 31.3716 3.92003C31.3716 4.41337 31.5249 4.8067 31.8316 5.10003C32.1516 5.39337 32.5583 5.6267 33.0516 5.80003C33.5583 5.97337 34.1116 6.13337 34.7116 6.28003C35.3116 6.41337 35.9116 6.5667 36.5116 6.74003C37.1249 6.91337 37.6783 7.14003 38.1716 7.42003C38.6783 7.70003 39.0849 8.07337 39.3916 8.54003C39.6983 9.0067 39.8516 9.6067 39.8516 10.34C39.8516 11.0467 39.6583 11.7067 39.2716 12.32C38.8849 12.92 38.2849 13.4067 37.4716 13.78C36.6716 14.14 35.6583 14.32 34.4316 14.32ZM46.8535 14.32C45.7868 14.32 44.7668 14.16 43.7935 13.84C42.8201 13.5067 42.0535 13.08 41.4935 12.56L42.2335 11C42.7668 11.4667 43.4468 11.8534 44.2735 12.16C45.1001 12.4667 45.9601 12.62 46.8535 12.62C47.6668 12.62 48.3268 12.5267 48.8335 12.34C49.3401 12.1534 49.7135 11.9 49.9535 11.58C50.1935 11.2467 50.3135 10.8734 50.3135 10.46C50.3135 9.98003 50.1535 9.59337 49.8335 9.30003C49.5268 9.0067 49.1201 8.77337 48.6135 8.60003C48.1201 8.41337 47.5735 8.25337 46.9735 8.12003C46.3735 7.9867 45.7668 7.83337 45.1535 7.66003C44.5535 7.47337 44.0001 7.24003 43.4935 6.96003C43.0001 6.68003 42.6001 6.3067 42.2935 5.84003C41.9868 5.36003 41.8335 4.7467 41.8335 4.00003C41.8335 3.28003 42.0201 2.62003 42.3935 2.02003C42.7801 1.4067 43.3668 0.920033 44.1535 0.560034C44.9535 0.186701 45.9668 3.40939e-05 47.1935 3.40939e-05C48.0068 3.40939e-05 48.8135 0.106701 49.6135 0.320034C50.4135 0.533367 51.1068 0.840033 51.6935 1.24003L51.0335 2.84003C50.4335 2.44003 49.8001 2.15337 49.1335 1.98003C48.4668 1.79337 47.8201 1.70003 47.1935 1.70003C46.4068 1.70003 45.7601 1.80003 45.2535 2.00003C44.7468 2.20003 44.3735 2.4667 44.1335 2.80003C43.9068 3.13337 43.7935 3.5067 43.7935 3.92003C43.7935 4.41337 43.9468 4.8067 44.2535 5.10003C44.5735 5.39337 44.9801 5.6267 45.4735 5.80003C45.9801 5.97337 46.5335 6.13337 47.1335 6.28003C47.7335 6.41337 48.3335 6.5667 48.9335 6.74003C49.5468 6.91337 50.1001 7.14003 50.5935 7.42003C51.1001 7.70003 51.5068 8.07337 51.8135 8.54003C52.1201 9.0067 52.2735 9.6067 52.2735 10.34C52.2735 11.0467 52.0801 11.7067 51.6935 12.32C51.3068 12.92 50.7068 13.4067 49.8935 13.78C49.0935 14.14 48.0801 14.32 46.8535 14.32ZM55.1953 14.16V0.160033H57.1953V14.16H55.1953ZM59.2667 14.16L65.6067 0.160033H67.5867L73.9467 14.16H71.8467L66.1867 1.28003H66.9867L61.3267 14.16H59.2667ZM61.9667 10.66L62.5067 9.06003H70.3867L70.9667 10.66H61.9667Z" fill="black"/>
</svg>
