<svg width="123" height="15" viewBox="0 0 123 15" fill="none" xmlns="http://www.w3.org/2000/svg">
<path d="M5.35999 14.32C4.29333 14.32 3.27333 14.16 2.29999 13.84C1.32666 13.5067 0.559993 13.08 -7.30157e-06 12.56L0.739993 11C1.27333 11.4667 1.95333 11.8534 2.77999 12.16C3.60666 12.4667 4.46666 12.62 5.35999 12.62C6.17333 12.62 6.83333 12.5267 7.33999 12.34C7.84666 12.1534 8.21999 11.9 8.45999 11.58C8.69999 11.2467 8.81999 10.8734 8.81999 10.46C8.81999 9.98003 8.65999 9.59337 8.33999 9.30003C8.03333 9.0067 7.62666 8.77337 7.11999 8.60003C6.62666 8.41337 6.07999 8.25337 5.47999 8.12003C4.87999 7.9867 4.27333 7.83337 3.65999 7.66003C3.05999 7.47337 2.50666 7.24003 1.99999 6.96003C1.50666 6.68003 1.10666 6.3067 0.799993 5.84003C0.493326 5.36003 0.339993 4.7467 0.339993 4.00003C0.339993 3.28003 0.526659 2.62003 0.899993 2.02003C1.28666 1.4067 1.87333 0.920033 2.65999 0.560034C3.45999 0.186701 4.47333 3.40939e-05 5.69999 3.40939e-05C6.51333 3.40939e-05 7.31999 0.106701 8.11999 0.320034C8.91999 0.533367 9.61333 0.840033 10.2 1.24003L9.53999 2.84003C8.93999 2.44003 8.30666 2.15337 7.63999 1.98003C6.97333 1.79337 6.32666 1.70003 5.69999 1.70003C4.91333 1.70003 4.26666 1.80003 3.75999 2.00003C3.25333 2.20003 2.87999 2.4667 2.63999 2.80003C2.41333 3.13337 2.29999 3.5067 2.29999 3.92003C2.29999 4.41337 2.45333 4.8067 2.75999 5.10003C3.07999 5.39337 3.48666 5.6267 3.97999 5.80003C4.48666 5.97337 5.03999 6.13337 5.63999 6.28003C6.23999 6.41337 6.83999 6.5667 7.43999 6.74003C8.05333 6.91337 8.60666 7.14003 9.09999 7.42003C9.60666 7.70003 10.0133 8.07337 10.32 8.54003C10.6267 9.0067 10.78 9.6067 10.78 10.34C10.78 11.0467 10.5867 11.7067 10.2 12.32C9.81333 12.92 9.21333 13.4067 8.39999 13.78C7.59999 14.14 6.58666 14.32 5.35999 14.32ZM13.7019 14.16V0.160033H15.7019V14.16H13.7019ZM19.8933 14.16V0.160033H21.5333L30.7933 11.66H29.9333V0.160033H31.9333V14.16H30.2933L21.0333 2.66003H21.8933V14.16H19.8933ZM42.4437 14.32C41.3637 14.32 40.3704 14.1467 39.4637 13.8C38.5571 13.44 37.7704 12.94 37.1037 12.3C36.4371 11.6467 35.9171 10.8867 35.5437 10.02C35.1704 9.15337 34.9837 8.20003 34.9837 7.16003C34.9837 6.12003 35.1704 5.1667 35.5437 4.30003C35.9171 3.43337 36.4371 2.68003 37.1037 2.04003C37.7837 1.3867 38.5771 0.8867 39.4837 0.540033C40.3904 0.180034 41.3904 3.40939e-05 42.4837 3.40939e-05C43.5904 3.40939e-05 44.6037 0.180034 45.5237 0.540033C46.4437 0.900033 47.2237 1.44003 47.8637 2.16003L46.6237 3.40003C46.0504 2.84003 45.4237 2.43337 44.7437 2.18003C44.0771 1.91337 43.3504 1.78003 42.5637 1.78003C41.7637 1.78003 41.0171 1.91337 40.3237 2.18003C39.6437 2.4467 39.0504 2.82003 38.5437 3.30003C38.0504 3.78003 37.6637 4.35337 37.3837 5.02003C37.1171 5.67337 36.9837 6.3867 36.9837 7.16003C36.9837 7.92003 37.1171 8.63337 37.3837 9.30003C37.6637 9.95337 38.0504 10.5267 38.5437 11.02C39.0504 11.5 39.6437 11.8734 40.3237 12.14C41.0037 12.4067 41.7437 12.54 42.5437 12.54C43.2904 12.54 44.0037 12.4267 44.6837 12.2C45.3771 11.96 46.0171 11.5667 46.6037 11.02L47.7437 12.54C47.0504 13.1267 46.2371 13.5734 45.3037 13.88C44.3837 14.1734 43.4304 14.32 42.4437 14.32ZM45.8237 12.28V7.08003H47.7437V12.54L45.8237 12.28ZM49.453 14.16L55.793 0.160033H57.773L64.133 14.16H62.033L56.373 1.28003H57.173L51.513 14.16H49.453ZM52.153 10.66L52.693 9.06003H60.573L61.153 10.66H52.153ZM66.2214 14.16V0.160033H71.6814C72.9081 0.160033 73.9547 0.353367 74.8214 0.740034C75.6881 1.1267 76.3547 1.6867 76.8214 2.42003C77.2881 3.15337 77.5214 4.0267 77.5214 5.04003C77.5214 6.05337 77.2881 6.9267 76.8214 7.66003C76.3547 8.38003 75.6881 8.94003 74.8214 9.34003C73.9547 9.7267 72.9081 9.92003 71.6814 9.92003H67.3214L68.2214 8.98003V14.16H66.2214ZM68.2214 9.18003L67.3214 8.18003H71.6214C72.9014 8.18003 73.8681 7.9067 74.5214 7.36003C75.1881 6.81337 75.5214 6.04003 75.5214 5.04003C75.5214 4.04003 75.1881 3.2667 74.5214 2.72003C73.8681 2.17337 72.9014 1.90003 71.6214 1.90003H67.3214L68.2214 0.900033V9.18003ZM86.975 14.32C85.9083 14.32 84.915 14.14 83.995 13.78C83.0883 13.42 82.3017 12.92 81.635 12.28C80.9683 11.6267 80.4483 10.8667 80.075 10C79.7017 9.13337 79.515 8.1867 79.515 7.16003C79.515 6.13337 79.7017 5.1867 80.075 4.32003C80.4483 3.45337 80.9683 2.70003 81.635 2.06003C82.3017 1.4067 83.0883 0.900033 83.995 0.540033C84.9017 0.180034 85.895 3.40939e-05 86.975 3.40939e-05C88.0417 3.40939e-05 89.0217 0.180034 89.915 0.540033C90.8217 0.8867 91.6083 1.3867 92.275 2.04003C92.955 2.68003 93.475 3.43337 93.835 4.30003C94.2083 5.1667 94.395 6.12003 94.395 7.16003C94.395 8.20003 94.2083 9.15337 93.835 10.02C93.475 10.8867 92.955 11.6467 92.275 12.3C91.6083 12.94 90.8217 13.44 89.915 13.8C89.0217 14.1467 88.0417 14.32 86.975 14.32ZM86.975 12.54C87.7483 12.54 88.4617 12.4067 89.115 12.14C89.7817 11.8734 90.355 11.5 90.835 11.02C91.3283 10.5267 91.7083 9.95337 91.975 9.30003C92.255 8.6467 92.395 7.93337 92.395 7.16003C92.395 6.3867 92.255 5.67337 91.975 5.02003C91.7083 4.3667 91.3283 3.80003 90.835 3.32003C90.355 2.8267 89.7817 2.4467 89.115 2.18003C88.4617 1.91337 87.7483 1.78003 86.975 1.78003C86.1883 1.78003 85.4617 1.91337 84.795 2.18003C84.1417 2.4467 83.5683 2.8267 83.075 3.32003C82.5817 3.80003 82.195 4.3667 81.915 5.02003C81.6483 5.67337 81.515 6.3867 81.515 7.16003C81.515 7.93337 81.6483 8.6467 81.915 9.30003C82.195 9.95337 82.5817 10.5267 83.075 11.02C83.5683 11.5 84.1417 11.8734 84.795 12.14C85.4617 12.4067 86.1883 12.54 86.975 12.54ZM97.4519 14.16V0.160033H102.912C104.139 0.160033 105.185 0.353367 106.052 0.740034C106.919 1.1267 107.585 1.6867 108.052 2.42003C108.519 3.15337 108.752 4.0267 108.752 5.04003C108.752 6.05337 108.519 6.9267 108.052 7.66003C107.585 8.38003 106.919 8.93337 106.052 9.32003C105.185 9.7067 104.139 9.90003 102.912 9.90003H98.5519L99.4519 8.98003V14.16H97.4519ZM106.812 14.16L103.252 9.08003H105.392L108.992 14.16H106.812ZM99.4519 9.18003L98.5519 8.20003H102.852C104.132 8.20003 105.099 7.9267 105.752 7.38003C106.419 6.82003 106.752 6.04003 106.752 5.04003C106.752 4.04003 106.419 3.2667 105.752 2.72003C105.099 2.17337 104.132 1.90003 102.852 1.90003H98.5519L99.4519 0.900033V9.18003ZM113.803 6.20003H121.003V7.90003H113.803V6.20003ZM113.983 12.42H122.143V14.16H111.983V0.160033H121.863V1.90003H113.983V12.42Z" fill="black"/>
</svg>
