<svg width="83" height="15" viewBox="0 0 83 15" fill="none" xmlns="http://www.w3.org/2000/svg">
<path d="M4.8 14V1.74H-1.82725e-06V-9.53674e-07H11.58V1.74H6.78V14H4.8ZM19.3044 14.16C17.4644 14.16 16.0177 13.6333 14.9644 12.58C13.911 11.5267 13.3844 9.98667 13.3844 7.96V-9.53674e-07H15.3844V7.88C15.3844 9.44 15.7244 10.58 16.4044 11.3C17.0977 12.02 18.071 12.38 19.3244 12.38C20.591 12.38 21.5644 12.02 22.2444 11.3C22.9377 10.58 23.2844 9.44 23.2844 7.88V-9.53674e-07H25.2244V7.96C25.2244 9.98667 24.6977 11.5267 23.6444 12.58C22.6044 13.6333 21.1577 14.16 19.3044 14.16ZM29.3247 14V-9.53674e-07H34.7847C36.0114 -9.53674e-07 37.058 0.193333 37.9247 0.58C38.7914 0.966666 39.458 1.52667 39.9247 2.26C40.3914 2.99333 40.6247 3.86667 40.6247 4.88C40.6247 5.89333 40.3914 6.76667 39.9247 7.5C39.458 8.22 38.7914 8.77333 37.9247 9.16C37.058 9.54667 36.0114 9.74 34.7847 9.74H30.4247L31.3247 8.82V14H29.3247ZM38.6847 14L35.1247 8.92H37.2647L40.8647 14H38.6847ZM31.3247 9.02L30.4247 8.04H34.7247C36.0047 8.04 36.9714 7.76667 37.6247 7.22C38.2914 6.66 38.6247 5.88 38.6247 4.88C38.6247 3.88 38.2914 3.10667 37.6247 2.56C36.9714 2.01333 36.0047 1.74 34.7247 1.74H30.4247L31.3247 0.739999V9.02ZM45.6159 10.62L45.5159 8.18L53.4559 -9.53674e-07H55.7359L49.5959 6.48L48.4759 7.72L45.6159 10.62ZM43.8559 14V-9.53674e-07H45.8559V14H43.8559ZM53.7759 14L48.0359 7.32L49.3759 5.84L56.1159 14H53.7759ZM60.0509 6.04H67.2509V7.74H60.0509V6.04ZM60.2309 12.26H68.3909V14H58.2309V-9.53674e-07H68.1109V1.74H60.2309V12.26ZM74.8531 14V8.64L75.3131 9.88L69.2931 -9.53674e-07H71.4331L76.4931 8.34H75.3331L80.4131 -9.53674e-07H82.3931L76.3931 9.88L76.8331 8.64V14H74.8531Z" fill="black"/>
</svg>
