<svg width="41" height="15" viewBox="0 0 41 15" fill="none" xmlns="http://www.w3.org/2000/svg">
<path d="M5.92002 14.32C4.08002 14.32 2.63335 13.7934 1.58002 12.74C0.526686 11.6867 1.96695e-05 10.1467 1.96695e-05 8.12003V0.160033H2.00002V8.04003C2.00002 9.60003 2.34002 10.74 3.02002 11.46C3.71335 12.18 4.68669 12.54 5.94002 12.54C7.20669 12.54 8.18002 12.18 8.86002 11.46C9.55335 10.74 9.90002 9.60003 9.90002 8.04003V0.160033H11.84V8.12003C11.84 10.1467 11.3134 11.6867 10.26 12.74C9.22002 13.7934 7.77335 14.32 5.92002 14.32ZM20.0203 14.32C18.9537 14.32 17.9337 14.16 16.9603 13.84C15.987 13.5067 15.2203 13.08 14.6603 12.56L15.4003 11C15.9337 11.4667 16.6137 11.8534 17.4403 12.16C18.267 12.4667 19.127 12.62 20.0203 12.62C20.8337 12.62 21.4937 12.5267 22.0003 12.34C22.507 12.1534 22.8803 11.9 23.1203 11.58C23.3603 11.2467 23.4803 10.8734 23.4803 10.46C23.4803 9.98003 23.3203 9.59337 23.0003 9.30003C22.6937 9.0067 22.287 8.77337 21.7803 8.60003C21.287 8.41337 20.7403 8.25337 20.1403 8.12003C19.5403 7.9867 18.9337 7.83337 18.3203 7.66003C17.7203 7.47337 17.167 7.24003 16.6603 6.96003C16.167 6.68003 15.767 6.3067 15.4603 5.84003C15.1537 5.36003 15.0003 4.7467 15.0003 4.00003C15.0003 3.28003 15.187 2.62003 15.5603 2.02003C15.947 1.4067 16.5337 0.920033 17.3203 0.560034C18.1203 0.186701 19.1337 3.40939e-05 20.3603 3.40939e-05C21.1737 3.40939e-05 21.9803 0.106701 22.7803 0.320034C23.5803 0.533367 24.2737 0.840033 24.8603 1.24003L24.2003 2.84003C23.6003 2.44003 22.967 2.15337 22.3003 1.98003C21.6337 1.79337 20.987 1.70003 20.3603 1.70003C19.5737 1.70003 18.927 1.80003 18.4203 2.00003C17.9137 2.20003 17.5403 2.4667 17.3003 2.80003C17.0737 3.13337 16.9603 3.5067 16.9603 3.92003C16.9603 4.41337 17.1137 4.8067 17.4203 5.10003C17.7403 5.39337 18.147 5.6267 18.6403 5.80003C19.147 5.97337 19.7003 6.13337 20.3003 6.28003C20.9003 6.41337 21.5003 6.5667 22.1003 6.74003C22.7137 6.91337 23.267 7.14003 23.7603 7.42003C24.267 7.70003 24.6737 8.07337 24.9803 8.54003C25.287 9.0067 25.4403 9.6067 25.4403 10.34C25.4403 11.0467 25.247 11.7067 24.8603 12.32C24.4737 12.92 23.8737 13.4067 23.0603 13.78C22.2603 14.14 21.247 14.32 20.0203 14.32ZM26.2422 14.16L32.5822 0.160033H34.5622L40.9222 14.16H38.8222L33.1622 1.28003H33.9622L28.3022 14.16H26.2422ZM28.9422 10.66L29.4822 9.06003H37.3622L37.9422 10.66H28.9422Z" fill="black"/>
</svg>
