<svg width="61" height="98" viewBox="0 0 61 98" fill="none" xmlns="http://www.w3.org/2000/svg">
<path d="M59.3056 94.6207H48.8847L40.9547 47.3103C41.3526 47.242 41.7129 47.0342 41.9707 46.7244C42.2285 46.4146 42.367 46.0232 42.3611 45.6207V40.5517H44.0556C44.505 40.5517 44.9359 40.3737 45.2537 40.0568C45.5715 39.74 45.75 39.3102 45.75 38.8621V32.1035C45.75 31.6553 45.5715 31.2256 45.2537 30.9087C44.9359 30.5918 44.505 30.4138 44.0556 30.4138H38.6842L35.9053 15.2069C36.2969 15.1314 36.6493 14.9205 36.9003 14.6115C37.1514 14.3024 37.285 13.9149 37.2778 13.5172V6.75862C37.2778 6.3105 37.0993 5.88073 36.7815 5.56385C36.4637 5.24698 36.0327 5.06897 35.5833 5.06897H32.1944V1.68966C32.1944 1.24153 32.0159 0.81176 31.6982 0.494888C31.3804 0.178017 30.9494 0 30.5 0C30.0506 0 29.6196 0.178017 29.3018 0.494888C28.9841 0.81176 28.8056 1.24153 28.8056 1.68966V5.06897H25.4167C24.9673 5.06897 24.5363 5.24698 24.2185 5.56385C23.9007 5.88073 23.7222 6.3105 23.7222 6.75862V13.5172C23.715 13.9149 23.8486 14.3024 24.0997 14.6115C24.3508 14.9205 24.7031 15.1314 25.0947 15.2069L22.3158 30.4138H16.9444C16.4951 30.4138 16.0641 30.5918 15.7463 30.9087C15.4285 31.2256 15.25 31.6553 15.25 32.1035V38.8621C15.25 39.3102 15.4285 39.74 15.7463 40.0568C16.0641 40.3737 16.4951 40.5517 16.9444 40.5517H18.6389V45.6207C18.633 46.0232 18.7715 46.4146 19.0293 46.7244C19.2872 47.0342 19.6474 47.242 20.0453 47.3103L12.1153 94.6207H1.69444C1.24505 94.6207 0.814062 94.7987 0.496292 95.1156C0.178522 95.4324 0 95.8622 0 96.3103C0 96.7585 0.178522 97.1882 0.496292 97.5051C0.814062 97.822 1.24505 98 1.69444 98H59.3056C59.755 98 60.1859 97.822 60.5037 97.5051C60.8215 97.1882 61 96.7585 61 96.3103C61 95.8622 60.8215 95.4324 60.5037 95.1156C60.1859 94.7987 59.755 94.6207 59.3056 94.6207ZM27.1111 8.44828H33.8889V11.8276H27.1111V8.44828ZM28.5175 15.2069H32.4825L35.2444 30.4138H25.7556L28.5175 15.2069ZM18.6389 33.7931H42.3611V37.1724H18.6389V33.7931ZM38.9722 40.5517V43.931H22.0278V40.5517H38.9722ZM15.555 94.6207L23.4681 47.3103H37.5319L45.445 94.6207H15.555Z" fill="black"/>
</svg>
